<svg id="Layer_1" data-name="Layer 1" xmlns="http://www.w3.org/2000/svg" viewBox="0 0 512 512"><rect x="141.26" y="195.71" width="185.03" height="18.71" rx="9.35"/><path d="M325.44,236.56l44.47-25.67a6.73,6.73,0,0,0,0-11.64l-44.47-25.68a6.72,6.72,0,0,0-10.07,5.82v51.35A6.72,6.72,0,0,0,325.44,236.56Z"/><rect x="188.24" y="297.58" width="185.03" height="18.71" rx="9.35"/><path d="M189.08,338.43l-44.46-25.68a6.71,6.71,0,0,1,0-11.63l44.46-25.68a6.72,6.72,0,0,1,10.08,5.82v51.35A6.72,6.72,0,0,1,189.08,338.43Z"/><path d="M265.61,51.42C145.11,45.88,45.89,145.11,51.42,265.61c4.83,105.05,89.9,190.13,195,195,120.5,5.54,219.74-93.69,214.2-214.2C455.74,141.32,370.66,56.25,265.61,51.42ZM77,260.66A178.44,178.44,0,0,1,126.36,132.6a10.84,10.84,0,0,1,16.36.7L349.53,394.39a10.86,10.86,0,0,1-3.06,16.09A178.09,178.09,0,0,1,249.26,435C155.32,431.48,79.38,354.63,77,260.66ZM369.62,378.33l-206.72-261a10.85,10.85,0,0,1,3.09-16.1,178,178,0,0,1,97-24.19c93.74,3.59,169.48,80.24,172,174A178.44,178.44,0,0,1,386,379,10.84,10.84,0,0,1,369.62,378.33Z"/></svg>